<svg xmlns="http://www.w3.org/2000/svg" viewBox="0 0 800 520" font-family="Arial, sans-serif">
  <defs>
    <linearGradient id="g0" x1="0" y1="0" x2="0" y2="1"><stop offset="0%" stop-color="#667eea"/><stop offset="100%" stop-color="#764ba2"/></linearGradient>
    <linearGradient id="g1" x1="0" y1="0" x2="0" y2="1"><stop offset="0%" stop-color="#f093fb"/><stop offset="100%" stop-color="#f5576c"/></linearGradient>
    <linearGradient id="g2" x1="0" y1="0" x2="0" y2="1"><stop offset="0%" stop-color="#4facfe"/><stop offset="100%" stop-color="#00f2fe"/></linearGradient>
    <linearGradient id="g3" x1="0" y1="0" x2="0" y2="1"><stop offset="0%" stop-color="#43e97b"/><stop offset="100%" stop-color="#38f9d7"/></linearGradient>
    <linearGradient id="g4" x1="0" y1="0" x2="0" y2="1"><stop offset="0%" stop-color="#fa709a"/><stop offset="100%" stop-color="#fee140"/></linearGradient>
    <linearGradient id="g5" x1="0" y1="0" x2="0" y2="1"><stop offset="0%" stop-color="#a18cd1"/><stop offset="100%" stop-color="#fbc2eb"/></linearGradient>
    <filter id="shadow"><feDropShadow dx="1" dy="2" stdDeviation="3" flood-opacity="0.15"/></filter>
    <marker id="arrow" markerWidth="8" markerHeight="6" refX="8" refY="3" orient="auto"><path d="M0,0 L8,3 L0,6 Z" fill="#555"/></marker>
  </defs>

  <!-- Title -->
  <text x="400" y="32" text-anchor="middle" font-size="18" font-weight="bold" fill="#333">Research Innovation Scout - Six-Step Pipeline</text>

  <!-- User Input -->
  <rect x="300" y="50" width="200" height="36" rx="18" fill="#eee" stroke="#999" stroke-width="1.5" filter="url(#shadow)"/>
  <text x="400" y="73" text-anchor="middle" font-size="13" fill="#555">User research interest</text>

  <!-- Arrow from user to step 0 -->
  <line x1="400" y1="86" x2="400" y2="105" stroke="#555" stroke-width="1.5" marker-end="url(#arrow)"/>

  <!-- Step 0 -->
  <rect x="120" y="108" width="220" height="50" rx="8" fill="url(#g0)" filter="url(#shadow)"/>
  <text x="230" y="130" text-anchor="middle" font-size="12" fill="#fff" font-weight="bold">Step 0: Input Classification</text>
  <text x="230" y="147" text-anchor="middle" font-size="10" fill="#ddd">A Specific RQ · B Method · C Broad Field</text>

  <!-- Arrow 0 -> 1 -->
  <line x1="230" y1="158" x2="230" y2="180" stroke="#555" stroke-width="1.5" marker-end="url(#arrow)"/>

  <!-- Step 1 -->
  <rect x="120" y="183" width="220" height="50" rx="8" fill="url(#g1)" filter="url(#shadow)"/>
  <text x="230" y="205" text-anchor="middle" font-size="12" fill="#fff" font-weight="bold">Step 1: Scene Validation</text>
  <text x="230" y="222" text-anchor="middle" font-size="10" fill="#ddd">Survey · Benchmark · Top venues | None -> stop</text>

  <!-- Arrow 1 -> 2 -->
  <line x1="230" y1="233" x2="230" y2="255" stroke="#555" stroke-width="1.5" marker-end="url(#arrow)"/>

  <!-- Step 2 -->
  <rect x="120" y="258" width="220" height="50" rx="8" fill="url(#g2)" filter="url(#shadow)"/>
  <text x="230" y="280" text-anchor="middle" font-size="12" fill="#fff" font-weight="bold">Step 2: Literature Mining</text>
  <text x="230" y="297" text-anchor="middle" font-size="10" fill="#333">Seeds + citation expansion + hard filters</text>

  <!-- Arrow 2 -> 3 -->
  <line x1="230" y1="308" x2="230" y2="330" stroke="#555" stroke-width="1.5" marker-end="url(#arrow)"/>

  <!-- Step 3 -->
  <rect x="120" y="333" width="220" height="50" rx="8" fill="url(#g3)" filter="url(#shadow)"/>
  <text x="230" y="355" text-anchor="middle" font-size="12" fill="#fff" font-weight="bold">Step 3: Paper Analysis</text>
  <text x="230" y="372" text-anchor="middle" font-size="10" fill="#333">Problem · Method · Contribution · Open issues</text>

  <!-- Arrow 3 -> 4 -->
  <line x1="230" y1="383" x2="230" y2="405" stroke="#555" stroke-width="1.5" marker-end="url(#arrow)"/>

  <!-- Step 4 -->
  <rect x="120" y="408" width="220" height="50" rx="8" fill="url(#g4)" filter="url(#shadow)"/>
  <text x="230" y="430" text-anchor="middle" font-size="12" fill="#fff" font-weight="bold">Step 4: Cross-Synthesis</text>
  <text x="230" y="447" text-anchor="middle" font-size="10" fill="#333">Problem pool · Method map · Directions</text>

  <!-- Curved arrow from 4 to 5 on the right side -->
  <path d="M340,433 Q500,433 500,340 Q500,250 460,250" fill="none" stroke="#555" stroke-width="1.5" marker-end="url(#arrow)" stroke-dasharray="4,2"/>
  <text x="510" y="380" font-size="10" fill="#888" transform="rotate(90,510,380)">organize inputs</text>

  <!-- Step 5 on the right side -->
  <rect x="460" y="180" width="240" height="55" rx="10" fill="url(#g5)" filter="url(#shadow)"/>
  <text x="580" y="202" text-anchor="middle" font-size="13" fill="#fff" font-weight="bold">Step 5: Report Generation</text>
  <text x="580" y="220" text-anchor="middle" font-size="10" fill="#333">report-{scene}-{date}.md</text>

  <!-- Arrow from 5 to report file -->
  <line x1="580" y1="235" x2="580" y2="260" stroke="#555" stroke-width="1.5" marker-end="url(#arrow)"/>

  <!-- Report file icon -->
  <rect x="480" y="263" width="200" height="40" rx="6" fill="#fff" stroke="#43e97b" stroke-width="2" filter="url(#shadow)"/>
  <text x="580" y="288" text-anchor="middle" font-size="12" fill="#333">Decision-support report</text>

  <!-- Innovation directions legend on the right -->
  <rect x="460" y="330" width="240" height="70" rx="6" fill="#f8f9fa" stroke="#ddd" stroke-width="1"/>
  <text x="580" y="350" text-anchor="middle" font-size="11" font-weight="bold" fill="#333">Four Direction Types</text>
  <text x="475" y="368" font-size="10" fill="#555">Deepen &amp; Optimize   Method Transfer</text>
  <text x="475" y="383" font-size="10" fill="#555">Gap Exploration      Problem Grafting</text>

  <!-- Pause indicators -->
  <rect x="15" y="270" width="90" height="55" rx="6" fill="#fff" stroke="#f5576c" stroke-width="1.5" stroke-dasharray="3,2"/>
  <text x="60" y="292" text-anchor="middle" font-size="9" fill="#f5576c" font-weight="bold">Pause points</text>
  <text x="60" y="306" text-anchor="middle" font-size="8" fill="#888">ambiguous input</text>
  <text x="60" y="318" text-anchor="middle" font-size="8" fill="#888">no / little evidence</text>
</svg>
